HIERARCHY
ROOT __0
{
	OFFSET 0.0 0.0 0.0
	CHANNELS 0
	JOINT Root
	{
		OFFSET 0.000000 0.000000 0.000000
		CHANNELS 6 Xposition Yposition Zposition Xrotation Yrotation Zrotation
		JOINT LegFront0.R
		{
			OFFSET -0.418178 -0.418153 0.176516
			CHANNELS 6 Xposition Yposition Zposition Xrotation Yrotation Zrotation
			JOINT LegFront1.R
			{
				OFFSET -0.323942 0.000000 0.000000
				CHANNELS 3 Xrotation Yrotation Zrotation
				JOINT LegFront2.R
				{
					OFFSET -0.647048 0.000000 -0.000230
					CHANNELS 3 Xrotation Yrotation Zrotation
					End Site
					{
						OFFSET -0.000003 0.000000 -0.916380
					}
				}
			}
		}
		JOINT LegFront0.L
		{
			OFFSET 0.418178 -0.418153 0.176516
			CHANNELS 6 Xposition Yposition Zposition Xrotation Yrotation Zrotation
			JOINT LegFront1.L
			{
				OFFSET 0.323942 0.000000 0.000000
				CHANNELS 3 Xrotation Yrotation Zrotation
				JOINT LegFront2.L
				{
					OFFSET 0.647048 0.000000 -0.000230
					CHANNELS 3 Xrotation Yrotation Zrotation
					End Site
					{
						OFFSET 0.000003 0.000000 -0.916380
					}
				}
			}
		}
		JOINT LegBack0.R
		{
			OFFSET -0.418178 0.418206 0.176516
			CHANNELS 6 Xposition Yposition Zposition Xrotation Yrotation Zrotation
			JOINT LegBack1.R
			{
				OFFSET -0.323942 0.000000 0.000000
				CHANNELS 3 Xrotation Yrotation Zrotation
				JOINT LegBack2.R
				{
					OFFSET -0.647048 0.000000 -0.000230
					CHANNELS 3 Xrotation Yrotation Zrotation
					End Site
					{
						OFFSET -0.000003 0.000000 -0.916380
					}
				}
			}
		}
		JOINT LegBack0.L
		{
			OFFSET 0.418178 0.418206 0.176516
			CHANNELS 6 Xposition Yposition Zposition Xrotation Yrotation Zrotation
			JOINT LegBack1.L
			{
				OFFSET 0.323942 0.000000 0.000000
				CHANNELS 3 Xrotation Yrotation Zrotation
				JOINT LegBack2.L
				{
					OFFSET 0.647048 0.000000 -0.000230
					CHANNELS 3 Xrotation Yrotation Zrotation
					End Site
					{
						OFFSET 0.000003 0.000000 -0.916380
					}
				}
			}
		}
	}
	JOINT LegFrontIK.L
	{
		OFFSET 1.389170 -0.418153 -0.740094
		CHANNELS 6 Xposition Yposition Zposition Xrotation Yrotation Zrotation
		End Site
		{
			OFFSET 0.000000 0.000000 -0.259647
		}
	}
	JOINT LegFrontIK.R
	{
		OFFSET -1.389170 -0.418153 -0.740094
		CHANNELS 6 Xposition Yposition Zposition Xrotation Yrotation Zrotation
		End Site
		{
			OFFSET 0.000000 0.000000 -0.259647
		}
	}
	JOINT LegBackIK.L
	{
		OFFSET 1.389170 0.418206 -0.740094
		CHANNELS 6 Xposition Yposition Zposition Xrotation Yrotation Zrotation
		End Site
		{
			OFFSET 0.000000 0.000000 -0.259647
		}
	}
	JOINT LegBackIK.R
	{
		OFFSET -1.389170 0.418206 -0.740094
		CHANNELS 6 Xposition Yposition Zposition Xrotation Yrotation Zrotation
		End Site
		{
			OFFSET 0.000000 0.000000 -0.259647
		}
	}
}
MOTION
Frames: 10
Frame Time: 0.100000
-0.000000 0.000000 -0.246992 -0.000000 0.000000 -0.000000 -0.418178 -0.418153 0.176516 0.000021 -0.000011 29.415576 0.001301 19.927729 -0.007395 0.000059 -21.266602 0.000011 0.418178 -0.418153 0.176516 0.000021 0.000011 -29.415586 0.001302 -19.935941 0.007398 0.000057 21.277880 -0.000012 -0.418178 0.418206 0.176516 -0.000013 0.000020 -29.405460 0.001302 19.927625 -0.007397 0.000057 -21.268164 0.000011 0.418178 0.418206 0.176516 -0.000013 -0.000020 29.405460 0.001302 -19.927625 0.007397 0.000057 21.268164 -0.000011 1.211687 -0.865491 -0.766286 -0.000000 0.000000 -0.000000 -1.211687 -0.865491 -0.766286 -0.000000 0.000000 -0.000000 1.211687 0.865491 -0.766286 -0.000000 0.000000 -0.000000 -1.211687 0.865491 -0.766286 -0.000000 0.000000 -0.000000 
-0.000000 -0.036062 -0.246992 -0.000000 0.000000 -0.000000 -0.418178 -0.418153 0.176516 0.000019 -0.000011 27.401240 0.001294 19.874010 -0.007375 0.000061 -22.299130 0.000011 0.418178 -0.418153 0.176516 0.000019 0.000011 -27.401256 0.001295 -19.883980 0.007379 0.000061 22.312794 -0.000009 -0.418178 0.418206 0.176516 -0.000013 0.000021 -31.343007 0.001305 19.950745 -0.007406 0.000053 -20.145209 0.000012 0.418178 0.418206 0.176516 -0.000013 -0.000021 31.343007 0.001305 -19.950745 0.007406 0.000053 20.145209 -0.000012 1.211687 -0.865491 -0.766286 -0.000000 0.000000 -0.000000 -1.211687 -0.865491 -0.766286 -0.000000 0.000000 -0.000000 1.211687 0.865491 -0.766286 -0.000000 0.000000 -0.000000 -1.211687 0.865491 -0.766286 -0.000000 0.000000 -0.000000 
-0.000000 -0.036062 -0.246992 -0.000000 0.000000 -0.000000 -0.418178 -0.418153 0.176516 0.000019 -0.000011 27.401240 0.001294 19.874010 -0.007375 0.000061 -22.299130 0.000011 0.418178 -0.418153 0.176516 0.000019 0.000011 -27.401256 0.001295 -19.883980 0.007379 0.000061 22.312794 -0.000009 -0.418178 0.418206 0.176516 -0.000013 0.000021 -31.343007 0.001305 19.950745 -0.007406 0.000053 -20.145209 0.000012 0.418178 0.418206 0.176516 -0.000013 -0.000021 31.343007 0.001305 -19.950745 0.007406 0.000053 20.145209 -0.000012 1.211687 -0.865491 -0.766286 -0.000000 0.000000 -0.000000 -1.211687 -0.865491 -0.766286 -0.000000 0.000000 -0.000000 1.211687 0.865491 -0.766286 -0.000000 0.000000 -0.000000 -1.211687 0.865491 -0.766286 -0.000000 0.000000 -0.000000 
-0.000000 -0.108186 -0.246992 -0.000000 0.000000 -0.000000 -0.418178 -0.418153 0.176516 0.000016 -0.000010 23.145609 0.001271 19.697432 -0.007300 0.000066 -24.094662 0.000013 0.418178 -0.418153 0.176516 0.000016 0.000010 -23.145619 0.001272 -19.700241 0.007301 0.000067 24.098883 -0.000013 -0.418178 0.418206 0.176516 -0.000014 0.000024 -34.988952 0.001296 19.884188 -0.007379 0.000047 -17.625570 0.000012 0.418178 0.418206 0.176516 -0.000005 -0.000006 9.426120 -0.093822 -106.134207 -0.070540 0.000274 60.057587 -0.000151 1.211687 -0.865491 -0.766286 -0.000000 0.000000 -0.000000 -1.211687 -0.865491 -0.766286 -0.000000 0.000000 -0.000000 1.211687 0.441919 -0.084513 -0.000000 0.000000 -0.000000 -1.211687 0.865491 -0.766286 -0.000000 0.000000 -0.000000 
-0.000000 -0.108186 -0.246992 -0.000000 0.000000 -0.000000 -0.418178 -0.418153 0.176516 0.000016 -0.000010 23.145609 0.001271 19.697432 -0.007300 0.000066 -24.094662 0.000013 0.418178 -0.418153 0.176516 0.000016 0.000010 -23.145619 0.001272 -19.700241 0.007301 0.000067 24.098883 -0.000013 -0.418178 0.418206 0.176516 -0.000014 0.000024 -34.988952 0.001296 19.884188 -0.007379 0.000047 -17.625570 0.000012 0.418178 0.418206 0.176516 -0.000005 -0.000006 9.426120 -0.093822 -106.134207 -0.070540 0.000274 60.057587 -0.000151 1.211687 -0.865491 -0.766286 -0.000000 0.000000 -0.000000 -1.211687 -0.865491 -0.766286 -0.000000 0.000000 -0.000000 1.211687 0.441919 -0.084513 -0.000000 0.000000 -0.000000 -1.211687 0.865491 -0.766286 -0.000000 0.000000 -0.000000 
-0.000000 -0.180311 -0.246992 -0.000000 0.000000 -0.000000 -0.418178 -0.418153 0.176516 0.000013 -0.000008 18.602100 0.001239 19.468720 -0.007210 0.000071 -25.534838 0.000016 0.418178 -0.418153 0.176516 0.000013 0.000008 -18.602118 0.001240 -19.471681 0.007212 0.000072 25.539512 -0.000017 -0.418178 0.418206 0.176516 -0.000014 0.000027 -38.336998 0.001264 19.636215 -0.007281 0.000037 -14.737318 0.000007 0.418178 0.418206 0.176516 0.000011 0.000008 -16.692072 0.001226 -19.372616 0.007174 0.000072 26.016967 -0.000014 1.211687 -0.865491 -0.766286 -0.000000 0.000000 -0.000000 -1.211687 -0.865491 -0.766286 -0.000000 0.000000 -0.000000 1.211687 -0.000000 -0.766286 -0.000000 0.000000 -0.000000 -1.211687 0.865491 -0.766286 -0.000000 0.000000 -0.000000 
-0.000000 -0.180311 -0.246992 -0.000000 0.000000 -0.000000 -0.418178 -0.418153 0.176516 0.000013 -0.000008 18.602100 0.001239 19.468720 -0.007210 0.000071 -25.534838 0.000016 0.418178 -0.418153 0.176516 0.000013 0.000008 -18.602118 0.001240 -19.471681 0.007212 0.000072 25.539512 -0.000017 -0.418178 0.418206 0.176516 -0.000014 0.000027 -38.336998 0.001264 19.636215 -0.007281 0.000037 -14.737318 0.000007 0.418178 0.418206 0.176516 0.000011 0.000008 -16.692072 0.001226 -19.372616 0.007174 0.000072 26.016967 -0.000014 1.211687 -0.865491 -0.766286 -0.000000 0.000000 -0.000000 -1.211687 -0.865491 -0.766286 -0.000000 0.000000 -0.000000 1.211687 -0.000000 -0.766286 -0.000000 0.000000 -0.000000 -1.211687 0.865491 -0.766286 -0.000000 0.000000 -0.000000 
-0.000000 -0.252435 -0.246992 -0.000000 0.000000 -0.000000 -0.418178 -0.418153 0.176516 0.000009 -0.000007 13.803062 0.001209 19.236178 -0.007117 0.000075 -26.624953 0.000018 0.418178 -0.418153 0.176516 0.000009 0.000007 -13.803093 0.001210 -19.241637 0.007120 0.000075 26.632409 -0.000018 -0.418178 0.418206 0.176516 -0.000015 0.000029 -41.402059 0.001201 19.174807 -0.007097 0.000028 -11.474810 -0.000002 0.418178 0.418206 0.176516 0.000008 0.000006 -11.803048 0.001197 -19.151473 0.007084 0.000075 26.967233 -0.000017 1.211687 -0.865491 -0.766286 -0.000000 0.000000 -0.000000 -1.211687 -0.865491 -0.766286 -0.000000 0.000000 -0.000000 1.211687 -0.000000 -0.766286 -0.000000 0.000000 -0.000000 -1.211687 0.865491 -0.766286 -0.000000 0.000000 -0.000000 
-0.000000 -0.252435 -0.246992 -0.000000 0.000000 -0.000000 -0.418178 -0.418153 0.176516 0.000009 -0.000007 13.803062 0.001209 19.236178 -0.007117 0.000075 -26.624953 0.000018 0.418178 -0.418153 0.176516 0.000009 0.000007 -13.803093 0.001210 -19.241637 0.007120 0.000075 26.632409 -0.000018 -0.418178 0.418206 0.176516 -0.000015 0.000029 -41.402059 0.001201 19.174807 -0.007097 0.000028 -11.474810 -0.000002 0.418178 0.418206 0.176516 0.000008 0.000006 -11.803048 0.001197 -19.151473 0.007084 0.000075 26.967233 -0.000017 1.211687 -0.865491 -0.766286 -0.000000 0.000000 -0.000000 -1.211687 -0.865491 -0.766286 -0.000000 0.000000 -0.000000 1.211687 -0.000000 -0.766286 -0.000000 0.000000 -0.000000 -1.211687 0.865491 -0.766286 -0.000000 0.000000 -0.000000 
-0.000000 -0.324559 -0.246992 -0.000000 0.000000 -0.000000 -0.418178 -0.418153 0.176516 0.000006 -0.000004 8.798645 0.001183 19.044058 -0.007041 0.000077 -27.370364 0.000017 0.418178 -0.418153 0.176516 0.000025 0.000012 -35.008736 1.328865 -89.133484 1.348893 0.000149 45.297760 -0.000062 -0.418178 0.418206 0.176516 -0.000015 0.000032 -44.203126 0.001111 18.472948 -0.006814 0.000017 -7.829505 0.000004 0.418178 0.418206 0.176516 0.000004 0.000003 -6.733786 0.001176 -18.986297 0.007018 0.000078 27.574800 -0.000018 1.211687 -1.298236 -0.084513 -0.000000 0.000000 -0.000000 -1.211687 -0.865491 -0.766286 -0.000000 0.000000 -0.000000 1.211687 -0.000000 -0.766286 -0.000000 0.000000 -0.000000 -1.211687 0.865491 -0.766286 -0.000000 0.000000 -0.000000 
